<svg width="80" height="108" viewBox="0 0 80 108" fill="none" xmlns="http://www.w3.org/2000/svg">
<path d="M48.6901 62.1455C47.4313 61.8379 46.3307 61.0757 45.6001 60.0055C45.4501 59.8055 45.2101 59.5255 45.1201 59.3955L44.7901 58.9555C44.5601 58.6555 44.3801 58.4255 44.1601 58.1655C43.9401 57.9055 43.4301 57.5255 43.1001 57.1655L42.9401 57.0155L42.8201 56.8855C42.7719 56.8273 42.7183 56.7737 42.6601 56.7255C42.5312 56.5927 42.3629 56.505 42.1801 56.4755C41.7601 56.4755 41.6701 56.9255 41.5901 57.3455C41.5901 57.3955 41.5901 57.6755 41.5901 57.8455C41.5901 58.0155 41.5901 58.2455 41.5901 58.4455C41.5917 58.8375 41.6251 59.2288 41.6901 59.6155C41.834 60.5197 42.1068 61.3987 42.5001 62.2255C42.6401 62.4755 42.5001 62.7355 42.0101 62.8455C41.2729 62.9771 40.5193 62.7247 40.0101 62.1755C39.7633 61.8983 39.5361 61.6042 39.3301 61.2955C39.167 60.9793 39.046 60.6431 38.9701 60.2955C38.8183 59.6789 38.7245 59.0495 38.6901 58.4155L38.6301 57.4655C38.616 56.9547 38.636 56.4436 38.6901 55.9355C38.838 55.0315 39.3423 54.2245 40.0901 53.6955C41.0121 53.1733 42.1294 53.1286 43.0901 53.5755C43.5972 53.7862 44.08 54.051 44.5301 54.3655C44.8847 54.5896 45.2193 54.8439 45.5301 55.1255C46.1333 55.6806 46.6917 56.2824 47.2001 56.9255C47.8001 57.6455 47.8101 57.7555 48.0801 58.0555C48.2153 58.2471 48.4135 58.3852 48.6401 58.4455C48.8748 58.4516 49.0908 58.3181 49.1901 58.1055C49.2911 57.9588 49.3749 57.8011 49.4401 57.6355C49.4855 57.5446 49.5256 57.4511 49.5601 57.3555L49.7201 56.9455L50.5001 54.9455C50.8734 53.7875 51.366 52.6715 51.9701 51.6155C52.1185 51.3664 52.2856 51.1291 52.4701 50.9055C52.7081 50.5779 53.0691 50.3613 53.4701 50.3055C53.8338 50.3834 54.1611 50.5805 54.4001 50.8655C54.5306 50.9818 54.6511 51.1089 54.7601 51.2455C54.9162 51.4807 55.0061 51.7536 55.0201 52.0355C55.1149 52.328 55.1149 52.643 55.0201 52.9355C54.3201 54.4114 53.6993 55.9235 53.1601 57.4655L52.6901 58.6155C52.5827 58.9586 52.4489 59.2929 52.2901 59.6155C52.1654 59.9412 52.0008 60.2502 51.8001 60.5355C51.6259 60.8136 51.4176 61.069 51.1801 61.2955L50.8401 61.6155L50.4501 61.8555C49.9065 62.162 49.2808 62.2913 48.6601 62.2255L48.6901 62.1455Z" fill="#161616"/>
<path d="M35.3503 74.2255C31.8973 70.1125 28.7712 65.7358 26.0003 61.1355C23.072 56.3602 21.1335 51.0449 20.3003 45.5055C19.6705 41.3132 20.051 37.0311 21.4103 33.0155C22.7563 29.4329 25.0558 26.2862 28.0603 23.9155C31.0476 21.6191 34.5923 20.1592 38.3303 19.6855C41.9528 19.2099 45.6347 19.496 49.1403 20.5255C52.6666 21.5749 55.8673 23.5057 58.4403 26.1355C60.6278 28.4541 62.4033 31.1292 63.6903 34.0455C64.9326 36.8613 65.8842 39.7965 66.5303 42.8055C66.9449 44.7398 67.2189 46.7016 67.3503 48.6755C67.5082 50.6012 67.5617 52.534 67.5103 54.4655C67.4585 58.2948 67.1847 62.1179 66.6903 65.9155C66.3703 68.2655 65.6903 67.9155 64.9503 65.8555C63.9588 62.6092 63.3941 59.2476 63.2703 55.8555C63.2003 53.9555 63.0503 52.0655 62.9303 50.2155C62.8229 48.4083 62.6125 46.6088 62.3003 44.8255C61.6313 41.3117 60.491 37.9042 58.9103 34.6955C58.1219 33.1839 57.1767 31.7594 56.0903 30.4455C55.0143 29.1961 53.7728 28.0993 52.4003 27.1855C50.9811 26.3043 49.4599 25.5991 47.8703 25.0855C46.1835 24.5807 44.4465 24.2622 42.6903 24.1355C38.4915 23.7526 34.3061 24.9985 31.0003 27.6155C27.7484 30.3594 25.655 34.2319 25.1403 38.4555C24.8364 40.8353 24.8734 43.2462 25.2503 45.6155C25.6599 48.0342 26.3305 50.4014 27.2503 52.6755C29.3016 57.3153 31.9217 61.6821 35.0503 65.6755C36.6903 67.8555 38.4003 69.9955 40.1603 72.1255L45.1003 78.0555C45.2603 78.2355 45.3903 78.4355 45.5603 78.5955C45.7303 78.7555 46.0203 78.5355 46.2303 78.4555C46.4403 78.3755 46.7803 78.1455 47.0503 77.9755L48.5303 76.9755C49.5303 76.2955 50.5903 75.6055 51.6603 74.9755C52.1903 74.6455 52.7403 74.3155 53.2903 73.9755L54.1703 73.4955C54.5103 73.3155 54.8003 73.1555 55.2303 72.9555C56.7201 72.2139 58.3 71.6693 59.9303 71.3355C61.3039 71.0659 62.7167 71.0659 64.0903 71.3355C65.3904 71.5693 66.5953 72.1735 67.5603 73.0755C68.0496 73.5447 68.2679 74.2298 68.1403 74.8955C67.9952 75.4253 67.7358 75.9168 67.3803 76.3355C66.5867 77.3314 65.6498 78.2043 64.6003 78.9255C63.6003 79.6255 62.4303 80.3255 61.2703 81.0255L59.5803 82.0255L58.9403 82.4455L58.3903 82.8255C57.6792 83.3119 57.0101 83.8571 56.3903 84.4555C55.8733 84.9203 55.4609 85.4895 55.1803 86.1255L55.1203 86.3055V86.3055L53.6803 85.8355V85.8355V85.8355C53.6582 85.8248 53.6324 85.8248 53.6103 85.8355C53.5203 85.8355 53.6103 85.8355 53.6103 85.8355C53.6103 85.8355 53.6103 85.8355 53.6103 85.7655L53.6903 85.6055C53.7304 85.5001 53.7507 85.3883 53.7503 85.2755C53.8075 84.9453 53.8343 84.6106 53.8303 84.2755V84.2755H54.0403C54.3903 84.2155 54.8203 84.1055 55.2403 83.9955L57.8903 83.2555C60.4003 82.5755 63.7803 81.6355 65.9503 81.8155C66.5473 81.8473 67.1383 81.9514 67.7103 82.1255C68.2483 82.3161 68.7393 82.6195 69.1503 83.0155C69.3072 83.2699 69.4251 83.5463 69.5003 83.8355C69.5393 84.0672 69.5393 84.3038 69.5003 84.5355C69.4142 85.1573 69.2214 85.7594 68.9303 86.3155C68.5809 86.981 68.1437 87.5965 67.6303 88.1455C66.5356 89.213 65.3586 90.1927 64.1103 91.0755L63.4403 91.5755C63.2803 91.7045 63.1134 91.8247 62.9403 91.9355C62.7103 92.0655 62.5003 92.1755 62.3003 92.2655C61.9279 92.4283 61.5434 92.5621 61.1503 92.6655C60.7906 92.8006 60.4534 92.9894 60.1503 93.2255C59.9103 93.3855 59.6803 93.3755 59.5003 93.0155C59.3004 92.4562 59.3004 91.8449 59.5003 91.2855C59.6202 90.9025 59.7741 90.531 59.9603 90.1755C60.0554 89.976 60.1622 89.7823 60.2803 89.5955L60.3703 89.4455C60.3703 89.4455 60.3703 89.4455 60.3703 89.3755V89.2555C60.4791 88.9805 60.613 88.716 60.7703 88.4655C60.8683 88.3206 60.9521 88.1666 61.0203 88.0055C61.0307 87.9426 61.0307 87.8784 61.0203 87.8155C61.0291 87.7699 61.0175 87.7227 60.9888 87.6862C60.96 87.6497 60.9167 87.6276 60.8703 87.6255C60.4877 87.6189 60.1095 87.7083 59.7703 87.8855L59.4103 88.0455L59.2703 88.1255H59.2103L59.0603 88.1855L56.9003 88.7655C56.0424 88.9997 55.1707 89.1801 54.2903 89.3055H53.7503H53.3103C53.0771 89.2934 52.8457 89.2566 52.6203 89.1955C52.4291 89.1507 52.2418 89.0905 52.0603 89.0155L51.7703 88.8855C51.5301 88.7506 51.3054 88.5896 51.1003 88.4055C50.2449 87.6593 49.83 86.5278 50.0003 85.4055C50.0003 85.2755 50.0003 85.1355 50.0603 85.0155C50.1203 84.8955 50.1503 84.7155 50.1403 84.7555V84.6955V84.5755L50.2403 84.3255C50.35 84.0155 50.4907 83.7173 50.6603 83.4355C50.797 83.165 50.9577 82.9074 51.1403 82.6655C51.7316 81.8274 52.4272 81.068 53.2103 80.4055C53.9103 79.8055 54.6003 79.2755 55.2903 78.7855L56.2903 78.1455L56.5803 77.9455V77.9455V77.9455V77.9455V77.9455L56.3203 78.0855L55.9003 78.3155C55.5403 78.5155 55.1803 78.7355 54.8203 78.9455C53.3803 79.8255 51.9503 80.8055 50.4003 81.8355L49.8103 82.2255L49.3203 82.5455L48.7503 82.8955C48.0229 83.3586 47.2401 83.7282 46.4203 83.9955C45.6578 84.2054 44.8528 84.2054 44.0903 83.9955C43.9047 83.9517 43.7328 83.8623 43.5903 83.7355L43.1103 83.4055L42.1103 82.7455L35.0103 74.3455L35.3503 74.2255Z" fill="#161616"/>
<path d="M44.5503 51.4255C45.419 51.9889 46.2121 52.661 46.9103 53.4255L47.3403 53.8955V53.9855L47.4503 54.1855L47.7303 54.6955C47.7803 54.7655 47.8503 54.9755 47.9303 54.8955C47.9786 54.8396 48.0159 54.7752 48.0403 54.7055C48.1303 54.4755 48.1003 54.1255 48.2203 53.8855V53.8855C48.2203 53.8855 48.2203 53.8855 48.2203 53.7755L48.3303 53.3755L48.5903 52.4955L48.7503 52.0055L49.0103 51.3855C49.1965 50.9544 49.4242 50.5424 49.6903 50.1555C50.1283 49.4477 50.7552 48.8763 51.5003 48.5055C52.2388 48.1548 53.0749 48.0666 53.8703 48.2555C54.676 48.4359 55.4268 48.8062 56.0603 49.3355C56.378 49.6066 56.6818 49.8936 56.9703 50.1955C57.2103 50.5055 57.4003 50.8355 57.6103 51.1955C58.2155 52.3151 58.5832 53.5474 58.6903 54.8155C58.7603 55.3455 58.7603 55.8155 58.8103 56.3555C58.8603 56.8955 58.8103 57.3555 58.8103 57.8555C58.8214 58.8203 58.7813 59.785 58.6903 60.7455C58.5703 61.9655 58.4203 63.1655 58.2303 64.3455C58.1303 64.9355 57.8303 65.4955 57.7203 66.0755C57.6103 66.6555 57.4703 67.2355 57.3703 67.8155C57.2703 68.3955 56.9103 68.4455 56.5303 67.8155C56.2871 67.3851 56.0926 66.929 55.9503 66.4555C55.8403 66.1655 55.8003 65.8655 55.6903 65.5355C55.5508 65.2096 55.4305 64.8757 55.3303 64.5355C55.1903 63.2855 55.2203 62.0955 55.1403 60.9155L55.0303 59.1855C55.0303 58.6255 55.0303 58.0655 54.9503 57.5255C54.9013 56.5405 54.7402 55.5642 54.4703 54.6155C54.425 54.4155 54.358 54.221 54.2703 54.0355C54.2003 53.8955 54.1203 53.6455 54.0803 53.5855C53.9603 53.3455 53.9403 53.2155 53.8603 53.0555C53.7581 52.8441 53.5539 52.7004 53.3203 52.6755C53.0892 52.7164 52.894 52.8703 52.8003 53.0855C52.7433 53.1943 52.6965 53.3081 52.6603 53.4255C52.5903 53.6155 52.4803 53.9355 52.3903 54.2555L52.2403 54.7755L52.0203 55.6755L51.6303 57.4855C51.4609 58.5367 51.0539 59.5354 50.4403 60.4055C50.324 60.5483 50.1969 60.682 50.0603 60.8055C49.9103 60.9488 49.7288 61.055 49.5303 61.1155C49.3602 61.1457 49.185 61.1099 49.0403 61.0155C48.9003 60.9355 48.7903 60.9055 48.6203 60.7955L48.1303 60.4955L47.5503 60.0455L47.4003 59.9355L47.2403 59.7255L46.9303 59.3055L46.3103 58.4755L45.6903 57.6155L45.0503 56.8755C44.9403 56.7555 44.8403 56.6255 44.7203 56.5155L44.5103 56.2855C44.3703 56.1555 44.2503 56.0055 44.1103 55.8855C43.5931 55.369 42.9953 54.9401 42.3403 54.6155C42.1088 54.5097 41.8492 54.4817 41.6003 54.5355C41.3547 54.6177 41.139 54.7708 40.9803 54.9755C40.7288 55.3218 40.618 55.7507 40.6703 56.1755C40.7193 56.8244 40.8677 57.4618 41.1103 58.0655C41.6427 59.4159 42.345 60.6928 43.2003 61.8655C44.6011 63.6776 46.1715 65.3519 47.8903 66.8655C48.2603 67.2155 48.6503 67.5255 49.0103 67.8655C50.3703 69.1755 50.6303 69.7255 50.2803 70.7155C50.2157 70.9428 50.139 71.1665 50.0503 71.3855C49.7003 72.0655 48.6703 71.9755 47.4703 71.1055C43.7556 68.3574 40.6334 64.8882 38.2903 60.9055C37.7923 60.0348 37.3899 59.1128 37.0903 58.1555C36.9291 57.5927 36.8154 57.0174 36.7503 56.4355C36.7242 56.0526 36.7242 55.6684 36.7503 55.2855C36.783 54.8808 36.8635 54.4813 36.9903 54.0955C37.0449 53.9015 37.1117 53.7111 37.1903 53.5255L37.4803 52.9955C37.6722 52.6374 37.9037 52.302 38.1703 51.9955C38.4503 51.7355 38.7503 51.4755 39.0603 51.2355C39.3796 51.0277 39.7139 50.8439 40.0603 50.6855C41.5894 50.233 43.2391 50.4588 44.5903 51.3055L44.5503 51.4255Z" fill="#161616"/>
<path d="M16.8904 27.3355C17.2004 27.3355 17.1104 27.7655 16.7704 28.4355C16.5964 28.7428 16.3656 29.0143 16.0904 29.2355C15.8893 29.316 15.682 29.3796 15.4704 29.4255C15.3704 29.4255 14.1804 29.0355 13.7404 28.9455C13.3455 28.8407 12.9705 28.6718 12.6304 28.4455C11.9304 28.0255 11.2004 27.6355 10.4804 27.2255C10.317 27.1354 10.1767 27.0088 10.0704 26.8555C9.67183 26.347 9.14806 25.9507 8.55035 25.7055C8.45153 25.6272 8.31962 25.6046 8.20035 25.6455C7.49282 25.4857 6.84053 25.1405 6.31035 24.6455C6.03035 24.0555 5.68035 23.5655 5.36035 23.0255C5.31035 22.9555 5.22035 22.9455 5.25035 22.7655C5.33035 22.3655 5.16035 22.3055 5.04035 22.1655C4.85786 21.9518 4.73688 21.6926 4.69035 21.4155C4.66409 21.2298 4.66409 21.0412 4.69035 20.8555C4.69035 20.6855 4.98035 20.4055 5.04035 20.3855C5.10035 20.3655 5.26035 20.1355 5.36035 19.9955C5.39128 19.9415 5.42818 19.8912 5.47035 19.8455C5.47035 19.8455 5.95035 19.7855 6.47035 19.6955C6.80183 19.6458 7.13887 19.6458 7.47035 19.6955L7.78035 19.8255L8.45035 20.0855L9.60035 20.4955C9.71035 20.4955 9.75035 20.6755 9.82035 20.7955C9.89035 20.9155 11.3004 21.5155 11.3504 21.5655C11.5904 21.7955 11.9404 21.8755 12.0204 22.3455C12.0204 22.4355 12.1004 22.4555 12.1604 22.4955C12.601 22.8227 13.0035 23.1984 13.3604 23.6155C13.5704 23.8155 13.8404 23.9555 14.0704 24.1355C14.0704 24.1355 14.1304 24.2355 14.1604 24.2855C14.1904 24.3355 14.2304 24.4255 14.2904 24.4555C14.822 24.9151 15.3832 25.3393 15.9704 25.7255C16.1204 25.8055 16.5304 26.5755 16.7004 26.6555C16.8704 26.7355 16.7704 27.3455 16.8904 27.3355Z" fill="#161616"/>
<path d="M24.1403 20.0455C24.3703 20.2455 23.9903 20.4755 23.2703 20.6755C22.9418 20.7451 22.6053 20.7687 22.2703 20.7455C22.0603 20.6455 21.8603 20.5555 21.7103 20.4655C21.5603 20.3755 21.1003 19.4655 20.8603 19.1155C20.6537 18.8119 20.5045 18.473 20.4203 18.1155C20.2203 17.4255 19.9703 16.7455 19.7303 16.0355C19.6949 15.8707 19.6949 15.7003 19.7303 15.5355C19.7959 14.9507 19.6881 14.3595 19.4203 13.8355C19.4203 13.7455 19.4203 13.6455 19.2103 13.5855C18.81 13.0382 18.5835 12.3832 18.5603 11.7055C18.7603 11.1155 18.8603 10.5455 19.0103 9.9755C19.0103 9.8955 19.0103 9.8255 19.1103 9.7255C19.3232 9.63831 19.4417 9.40978 19.3903 9.1855C19.412 8.9237 19.5016 8.67208 19.6503 8.4555C19.7656 8.31754 19.8965 8.19338 20.0403 8.0855C20.2224 8.00496 20.4243 7.98059 20.6203 8.0155C20.7703 8.1055 20.9603 8.0155 21.1303 8.0155H21.3103C21.3103 8.0155 21.6903 8.2855 22.0903 8.5355C22.3383 8.69845 22.5607 8.89728 22.7503 9.1255C22.7503 9.1255 22.8003 9.2355 22.8703 9.3955L23.1603 9.9655C23.3703 10.3855 23.6403 10.8055 23.6803 10.9055C23.7203 11.0055 23.6803 11.1155 23.6803 11.2255C23.6803 11.3355 24.2403 12.5955 24.2503 12.6555C24.2503 12.9555 24.4603 13.2155 24.2003 13.5855C24.1701 13.6417 24.1701 13.7093 24.2003 13.7655C24.3231 14.2829 24.3802 14.8138 24.3703 15.3455C24.4049 15.6115 24.4549 15.8753 24.5203 16.1355C24.5299 16.1884 24.5299 16.2426 24.5203 16.2955C24.5014 16.3608 24.5014 16.4302 24.5203 16.4955C24.5936 17.1472 24.7004 17.7948 24.8403 18.4355C24.8903 18.5855 24.6303 19.3655 24.7003 19.5355C24.7703 19.7055 24.0603 19.9755 24.1403 20.0455Z" fill="#161616"/>
<path d="M15.0002 37.4755C15.3002 37.3155 15.4802 37.7455 15.5502 38.4755C15.5474 38.8175 15.4831 39.1563 15.3602 39.4755C15.2002 39.6555 15.0502 39.8355 14.9102 39.9655C14.3231 40.1494 13.7457 40.363 13.1802 40.6055C12.7987 40.7782 12.3947 40.896 11.9802 40.9555C11.1602 41.1255 10.3402 41.3555 9.49024 41.5855C9.29559 41.6254 9.09489 41.6254 8.90024 41.5855C8.23034 41.4629 7.53983 41.5216 6.90024 41.7555C6.78024 41.7555 6.66024 41.7555 6.58024 41.9555C5.87726 42.3301 5.09657 42.5356 4.30024 42.5555C3.62024 42.3455 2.95024 42.2455 2.30024 42.0955C2.21024 42.0955 2.12024 42.0955 2.01024 41.9755C1.77024 41.6055 1.58024 41.6955 1.38024 41.6755C1.08214 41.6218 0.792792 41.5276 0.52024 41.3955C0.358005 41.284 0.21311 41.1493 0.0902402 40.9955C-0.0397598 40.8655 0.000240181 40.4055 0.0302402 40.3455C0.0602402 40.2855 0.0302402 39.9655 0.0302402 39.7755C0.0302402 39.5855 0.0302402 39.6255 0.0302402 39.5655C0.243994 39.3041 0.470956 39.0538 0.71024 38.8155C0.918459 38.532 1.17587 38.2881 1.47024 38.0955L1.81024 37.9755L2.53024 37.6955L3.69024 37.2055C3.80024 37.1455 3.95024 37.2055 4.08024 37.2055C4.21024 37.2055 5.80024 36.5755 5.88024 36.5755C6.25024 36.5755 6.59024 36.3455 7.02024 36.6255C7.10024 36.6855 7.17024 36.6255 7.25024 36.6255C7.90638 36.4801 8.58142 36.4396 9.25024 36.5055C9.59024 36.5055 9.92024 36.4555 10.2502 36.4455C10.3102 36.4455 10.3802 36.4455 10.4402 36.5055C10.5183 36.5325 10.5986 36.5526 10.6802 36.5655C11.5002 36.4955 12.3202 36.6555 13.1502 36.5655C13.3502 36.5655 14.2602 36.9655 14.4802 36.9555C14.7002 36.9455 14.8902 37.5355 15.0002 37.4755Z" fill="#161616"/>
</svg>
