<svg width="176" height="87" viewBox="0 0 176 87" fill="none" xmlns="http://www.w3.org/2000/svg">
<path d="M17.7184 40.6229C23.1844 38.8575 29.0631 35.9971 33.7112 31.3624C45.7497 19.3589 44.9755 0 44.9755 0C44.9755 0 24.6831 0.102609 12.6446 12.1061C3.42727 21.2967 1.72114 34.7992 1.42768 40.6229H0L0 46.4661H1.43225C1.73861 52.3374 3.47393 65.7498 12.6446 74.8939C24.6831 86.8974 44.9755 87 44.9755 87C44.9755 87 45.7497 67.6411 33.7113 55.6376C29.1404 51.08 23.3797 48.2381 17.9915 46.4661H44.6469C44.9533 52.3374 46.6886 65.7498 55.8593 74.8939C67.8977 86.8974 88.1902 87 88.1902 87C88.1902 87 88.9644 67.6411 76.9259 55.6376C72.3551 51.08 66.5943 48.2381 61.2062 46.4661H87.8617C88.168 52.3374 89.9034 65.7498 99.074 74.8939C111.112 86.8974 131.405 87 131.405 87C131.405 87 132.179 67.6411 120.141 55.6376C115.57 51.08 109.809 48.2381 104.421 46.4661H131.076C131.383 52.3374 133.118 65.7498 142.289 74.8939C154.327 86.8974 174.62 87 174.62 87C174.62 87 175.394 67.6411 163.355 55.6376C158.785 51.08 153.024 48.2381 147.636 46.4661H176V40.6229H147.363C152.829 38.8575 158.707 35.9971 163.355 31.3624C175.394 19.3589 174.62 0 174.62 0C174.62 0 154.327 0.102609 142.289 12.1061C133.071 21.2967 131.365 34.7992 131.072 40.6229H104.148C109.614 38.8575 115.492 35.9971 120.141 31.3624C132.179 19.3589 131.405 0 131.405 0C131.405 0 111.112 0.102609 99.074 12.1061C89.8567 21.2967 88.1506 34.7992 87.8571 40.6229H60.9331C66.3991 38.8575 72.2777 35.9971 76.9259 31.3624C88.9644 19.3589 88.1902 0 88.1902 0C88.1902 0 67.8977 0.102609 55.8593 12.1061C46.6419 21.2967 44.9358 34.7992 44.6424 40.6229H17.7184Z" fill="#FAF9E1"/>
</svg>
