<svg width="400" height="241" viewBox="0 0 400 241" fill="none" xmlns="http://www.w3.org/2000/svg">
<rect width="400" height="241" fill="#1E1E1E"/>
<rect width="1440" height="1331" transform="translate(-946 -97)" fill="white"/>
<g filter="url(#filter0_d_22_35)">
<rect x="2" y="24" width="370" height="209" rx="4" fill="white"/>
<rect x="1" y="23" width="372" height="211" rx="5" stroke="#161616" stroke-width="2"/>
</g>
<path d="M30.44 48.16L24.248 48.376L22.988 55.9H20.612L21.224 46.252H43.652L44.084 55.9H41.816L40.628 48.376L34.4 48.16V70.876L39.512 71.236V73H25.76V71.236L30.44 70.876V48.16ZM47.7698 46.144L44.7458 45.748V44.2L50.6138 43.516H50.6858L51.4778 44.056V52.408L51.3338 55.468C52.1018 54.772 53.1578 54.112 54.5018 53.488C55.8458 52.864 57.2018 52.552 58.5698 52.552C60.0818 52.552 61.2578 52.84 62.0978 53.416C62.9378 53.992 63.5258 54.88 63.8618 56.08C64.1978 57.256 64.3658 58.852 64.3658 60.868V70.912L66.8858 71.236V73H58.2818V71.236L60.6218 70.912V60.832C60.6218 59.416 60.5258 58.312 60.3338 57.52C60.1418 56.704 59.7818 56.104 59.2538 55.72C58.7258 55.312 57.9338 55.108 56.8778 55.108C56.0138 55.108 55.0898 55.324 54.1058 55.756C53.1218 56.188 52.2578 56.692 51.5138 57.268V70.912L53.9978 71.236V73H45.6098V71.236L47.7698 70.948V46.144ZM77.6923 73.396C74.7883 73.396 72.5683 72.448 71.0323 70.552C69.5203 68.656 68.7643 66.124 68.7643 62.956C68.7643 60.868 69.1603 59.032 69.9523 57.448C70.7443 55.864 71.8483 54.64 73.2643 53.776C74.7043 52.912 76.3363 52.48 78.1603 52.48C80.3923 52.48 82.1203 53.104 83.3443 54.352C84.5923 55.576 85.2523 57.34 85.3243 59.644C85.3243 61.108 85.2403 62.224 85.0723 62.992H72.6883C72.7363 65.368 73.2883 67.288 74.3443 68.752C75.4003 70.192 76.9003 70.912 78.8443 70.912C79.8043 70.912 80.8003 70.744 81.8323 70.408C82.8883 70.048 83.7043 69.628 84.2803 69.148L84.9643 70.732C84.2683 71.452 83.2363 72.076 81.8683 72.604C80.5003 73.132 79.1083 73.396 77.6923 73.396ZM81.3643 61.084C81.4363 60.58 81.4723 60.064 81.4723 59.536C81.4483 57.976 81.1123 56.752 80.4643 55.864C79.8403 54.952 78.8443 54.496 77.4763 54.496C76.0843 54.496 74.9683 55 74.1283 56.008C73.3123 57.016 72.8443 58.708 72.7243 61.084H81.3643ZM41.384 139.792C38.792 139.792 36.464 139.576 34.4 139.144C32.336 138.712 30.032 138.136 27.488 137.416C25.808 136.936 24.68 136.672 24.104 136.624L24.752 123.304H30.584L32.168 132.592C32.792 133.264 33.896 133.864 35.48 134.392C37.112 134.92 38.96 135.184 41.024 135.184C44.24 135.184 46.64 134.488 48.224 133.096C49.856 131.656 50.672 129.664 50.672 127.12C50.672 125.44 50.192 124 49.232 122.8C48.272 121.552 46.952 120.448 45.272 119.488C43.592 118.48 41.288 117.328 38.36 116.032C34.376 114.208 31.064 112.048 28.424 109.552C25.832 107.008 24.536 103.576 24.536 99.256C24.536 96.568 25.232 94.144 26.624 91.984C28.016 89.776 30.08 88.048 32.816 86.8C35.6 85.504 38.984 84.856 42.968 84.856C45.32 84.856 47.384 85.024 49.16 85.36C50.984 85.696 52.952 86.152 55.064 86.728C56.312 87.064 57.248 87.28 57.872 87.376L57.44 99.976H51.68L50.168 91.12C49.736 90.688 48.872 90.28 47.576 89.896C46.28 89.464 44.84 89.248 43.256 89.248C40.376 89.248 38.192 89.92 36.704 91.264C35.264 92.56 34.544 94.312 34.544 96.52C34.544 98.296 35.072 99.832 36.128 101.128C37.232 102.424 38.552 103.528 40.088 104.44C41.624 105.304 44.048 106.552 47.36 108.184C50.048 109.48 52.352 110.752 54.272 112C56.192 113.248 57.848 114.88 59.24 116.896C60.632 118.864 61.328 121.192 61.328 123.88C61.328 126.52 60.656 129.04 59.312 131.44C58.016 133.84 55.856 135.832 52.832 137.416C49.856 139 46.04 139.792 41.384 139.792ZM77.2788 139.648C74.2548 139.648 72.0228 138.952 70.5828 137.56C69.1428 136.168 68.4228 133.96 68.4228 130.936V104.512H63.7428V100.768C64.1268 100.624 64.8228 100.384 65.8308 100.048C66.8388 99.664 67.6068 99.352 68.1348 99.112C68.9508 98.488 69.6468 97.408 70.2228 95.872C70.6548 94.864 71.4468 92.368 72.5988 88.384H78.3588L78.6468 98.968H89.6628V104.512H78.7188V124.744C78.7188 127.432 78.7908 129.328 78.9348 130.432C79.0788 131.536 79.3908 132.256 79.8708 132.592C80.3508 132.88 81.1908 133.024 82.3908 133.024C83.5908 133.024 84.8388 132.904 86.1348 132.664C87.4308 132.376 88.5108 132.04 89.3748 131.656L90.7428 135.688C89.3988 136.696 87.4308 137.608 84.8388 138.424C82.2468 139.24 79.7268 139.648 77.2788 139.648ZM92.3414 127.768C92.3414 123.4 94.5254 120.112 98.8934 117.904C103.309 115.696 108.997 114.568 115.957 114.52V112.864C115.957 110.896 115.741 109.36 115.309 108.256C114.925 107.152 114.181 106.336 113.077 105.808C112.021 105.232 110.461 104.944 108.397 104.944C106.045 104.944 103.933 105.256 102.061 105.88C100.189 106.456 98.2454 107.224 96.2294 108.184L93.9974 103.576C94.7174 102.952 95.9174 102.208 97.5974 101.344C99.3254 100.48 101.365 99.736 103.717 99.112C106.069 98.44 108.493 98.104 110.989 98.104C114.685 98.104 117.565 98.584 119.629 99.544C121.741 100.504 123.253 102.04 124.165 104.152C125.077 106.264 125.533 109.096 125.533 112.648V134.68H129.421V138.712C128.461 138.952 127.093 139.192 125.317 139.432C123.541 139.672 121.981 139.792 120.637 139.792C119.005 139.792 117.901 139.552 117.325 139.072C116.797 138.592 116.533 137.608 116.533 136.12V134.176C115.237 135.616 113.557 136.912 111.493 138.064C109.429 139.216 107.101 139.792 104.509 139.792C102.301 139.792 100.261 139.336 98.3894 138.424C96.5654 137.464 95.1014 136.096 93.9974 134.32C92.8934 132.496 92.3414 130.312 92.3414 127.768ZM109.117 133.816C110.125 133.816 111.277 133.528 112.573 132.952C113.869 132.328 114.997 131.584 115.957 130.72V118.912C111.637 118.912 108.397 119.656 106.237 121.144C104.125 122.584 103.069 124.456 103.069 126.76C103.069 129.064 103.597 130.816 104.653 132.016C105.757 133.216 107.245 133.816 109.117 133.816ZM132.475 134.752L137.227 134.176V105.808L132.619 104.512V99.544L143.779 98.032H143.995L145.795 99.472V101.056L145.579 106.888H145.795C146.131 105.928 146.923 104.752 148.171 103.36C149.419 101.92 150.979 100.672 152.851 99.616C154.771 98.512 156.835 97.96 159.043 97.96C160.099 97.96 161.011 98.104 161.779 98.392V109.192C160.339 108.184 158.587 107.68 156.523 107.68C153.019 107.68 149.971 108.616 147.379 110.488V134.104L155.731 134.752V139H132.475V134.752ZM177.021 139.648C173.997 139.648 171.765 138.952 170.325 137.56C168.885 136.168 168.165 133.96 168.165 130.936V104.512H163.485V100.768C163.869 100.624 164.565 100.384 165.573 100.048C166.581 99.664 167.349 99.352 167.877 99.112C168.693 98.488 169.389 97.408 169.965 95.872C170.397 94.864 171.189 92.368 172.341 88.384H178.101L178.389 98.968H189.405V104.512H178.461V124.744C178.461 127.432 178.533 129.328 178.677 130.432C178.821 131.536 179.133 132.256 179.613 132.592C180.093 132.88 180.933 133.024 182.133 133.024C183.333 133.024 184.581 132.904 185.877 132.664C187.173 132.376 188.253 132.04 189.117 131.656L190.485 135.688C189.141 136.696 187.173 137.608 184.581 138.424C181.989 139.24 179.469 139.648 177.021 139.648ZM225.348 139.72C223.764 139.72 222.612 139.384 221.892 138.712C221.172 138.04 220.812 137.032 220.812 135.688V133.744C219.516 135.328 217.692 136.744 215.34 137.992C212.988 139.192 210.636 139.792 208.284 139.792C203.676 139.792 200.388 138.616 198.42 136.264C196.452 133.864 195.468 129.928 195.468 124.456V104.152L191.868 103.144V99.04L204.108 98.104H204.18L205.62 99.112V124.456C205.62 127.96 206.052 130.408 206.916 131.8C207.78 133.192 209.388 133.888 211.74 133.888C214.572 133.888 217.212 132.784 219.66 130.576V104.152L214.836 103.072V99.04L227.868 98.104H228.012L229.74 99.112V134.536H233.772L233.7 138.64C233.508 138.688 232.62 138.88 231.036 139.216C229.452 139.552 227.556 139.72 225.348 139.72ZM277.236 117.688C277.236 121.72 276.396 125.416 274.716 128.776C273.084 132.136 270.66 134.824 267.444 136.84C264.276 138.808 260.484 139.792 256.068 139.792C255.108 139.792 254.1 139.696 253.044 139.504C252.036 139.36 251.22 139.168 250.596 138.928L250.812 144.904V151.456L257.508 152.32V156.424H236.124V152.32L240.804 151.456V105.808L236.124 104.512V99.544L248.004 98.032H248.148L249.948 99.472V103.504C251.148 102.016 252.78 100.72 254.844 99.616C256.908 98.512 259.164 97.96 261.612 97.96C266.172 97.96 269.916 99.592 272.844 102.856C275.772 106.072 277.236 111.016 277.236 117.688ZM257.868 103.936C256.428 103.936 255.06 104.248 253.764 104.872C252.468 105.496 251.484 106.192 250.812 106.96V133.672C251.148 134.152 251.82 134.56 252.828 134.896C253.884 135.232 255.036 135.4 256.284 135.4C259.404 135.4 261.876 134.056 263.7 131.368C265.572 128.632 266.508 124.36 266.508 118.552C266.508 113.656 265.716 110.008 264.132 107.608C262.548 105.16 260.46 103.936 257.868 103.936ZM47.288 205.792C39.128 205.792 32.888 203.368 28.568 198.52C24.248 193.624 22.088 186.952 22.088 178.504C22.088 172.936 23.216 168.088 25.472 163.96C27.776 159.784 30.92 156.568 34.904 154.312C38.888 152.056 43.4 150.928 48.44 150.928C50.552 150.928 52.592 151.072 54.56 151.36C56.528 151.6 58.856 151.936 61.544 152.368C63.56 152.704 64.664 152.872 64.856 152.872L64.064 167.704H57.44L55.208 157.408C54.68 156.88 53.768 156.448 52.472 156.112C51.176 155.776 49.52 155.608 47.504 155.608C43.424 155.608 40.136 157.504 37.64 161.296C35.192 165.04 33.968 170.488 33.968 177.64C33.968 184.552 35.144 190.192 37.496 194.56C39.848 198.928 43.28 201.112 47.792 201.112C49.952 201.112 51.608 200.92 52.76 200.536C53.96 200.104 54.968 199.504 55.784 198.736L58.952 191.32L65 191.896L63.56 203.056C62.552 203.152 61.544 203.344 60.536 203.632C59.576 203.872 58.976 204.016 58.736 204.064C56.816 204.592 55.016 205 53.336 205.288C51.704 205.624 49.688 205.792 47.288 205.792ZM69.1906 185.056C69.1906 180.544 70.0786 176.704 71.8546 173.536C73.6786 170.368 76.1026 167.992 79.1266 166.408C82.1506 164.776 85.4386 163.96 88.9906 163.96C95.0386 163.96 99.6946 165.832 102.959 169.576C106.271 173.272 107.927 178.312 107.927 184.696C107.927 189.256 107.015 193.144 105.191 196.36C103.415 199.528 101.015 201.904 97.9906 203.488C95.0146 205.024 91.7266 205.792 88.1266 205.792C82.1266 205.792 77.4706 203.944 74.1586 200.248C70.8466 196.504 69.1906 191.44 69.1906 185.056ZM88.7026 201.112C94.1266 201.112 96.8386 195.88 96.8386 185.416C96.8386 179.944 96.1906 175.792 94.8946 172.96C93.5986 170.08 91.4866 168.64 88.5586 168.64C82.9906 168.64 80.2066 173.872 80.2066 184.336C80.2066 189.808 80.8786 193.984 82.2226 196.864C83.6146 199.696 85.7746 201.112 88.7026 201.112ZM113.032 200.68L117.064 200.032V171.808L112.456 170.512V165.544L124.408 164.032L125.272 164.608L126.352 166.984V170.008C127.936 168.472 130.192 167.128 133.12 165.976C136.096 164.776 138.664 164.176 140.824 164.176C143.416 164.176 145.504 164.608 147.088 165.472C148.72 166.336 149.944 167.68 150.76 169.504C152.344 168.064 154.432 166.816 157.024 165.76C159.616 164.704 162.16 164.176 164.656 164.176C168.928 164.176 171.952 165.424 173.728 167.92C175.504 170.416 176.392 174.496 176.392 180.16V200.032L181.072 200.68V205H162.424V200.68L166.168 200.032V180.448C166.168 176.704 165.712 174.088 164.8 172.6C163.936 171.064 162.256 170.296 159.76 170.296C158.416 170.296 157.024 170.608 155.584 171.232C154.192 171.808 152.944 172.528 151.84 173.392C152.176 175.216 152.344 177.496 152.344 180.232V200.032L156.808 200.68V205H138.016V200.68L141.976 200.032V180.232C141.976 177.736 141.808 175.792 141.472 174.4C141.184 172.96 140.608 171.928 139.744 171.304C138.88 170.632 137.632 170.296 136 170.296C134.464 170.296 132.928 170.656 131.392 171.376C129.904 172.048 128.56 172.864 127.36 173.824V200.032L131.608 200.68V205H113.032V200.68ZM224.322 183.688C224.322 187.72 223.482 191.416 221.802 194.776C220.17 198.136 217.746 200.824 214.53 202.84C211.362 204.808 207.57 205.792 203.154 205.792C202.194 205.792 201.186 205.696 200.13 205.504C199.122 205.36 198.306 205.168 197.682 204.928L197.898 210.904V217.456L204.594 218.32V222.424H183.21V218.32L187.89 217.456V171.808L183.21 170.512V165.544L195.09 164.032H195.234L197.034 165.472V169.504C198.234 168.016 199.866 166.72 201.93 165.616C203.994 164.512 206.25 163.96 208.698 163.96C213.258 163.96 217.002 165.592 219.93 168.856C222.858 172.072 224.322 177.016 224.322 183.688ZM204.954 169.936C203.514 169.936 202.146 170.248 200.85 170.872C199.554 171.496 198.57 172.192 197.898 172.96V199.672C198.234 200.152 198.906 200.56 199.914 200.896C200.97 201.232 202.122 201.4 203.37 201.4C206.49 201.4 208.962 200.056 210.786 197.368C212.658 194.632 213.594 190.36 213.594 184.552C213.594 179.656 212.802 176.008 211.218 173.608C209.634 171.16 207.546 169.936 204.954 169.936ZM227.977 193.768C227.977 189.4 230.161 186.112 234.529 183.904C238.945 181.696 244.633 180.568 251.593 180.52V178.864C251.593 176.896 251.377 175.36 250.945 174.256C250.561 173.152 249.817 172.336 248.713 171.808C247.657 171.232 246.097 170.944 244.033 170.944C241.681 170.944 239.569 171.256 237.697 171.88C235.825 172.456 233.881 173.224 231.865 174.184L229.633 169.576C230.353 168.952 231.553 168.208 233.233 167.344C234.961 166.48 237.001 165.736 239.353 165.112C241.705 164.44 244.129 164.104 246.625 164.104C250.321 164.104 253.201 164.584 255.265 165.544C257.377 166.504 258.889 168.04 259.801 170.152C260.713 172.264 261.169 175.096 261.169 178.648V200.68H265.057V204.712C264.097 204.952 262.729 205.192 260.953 205.432C259.177 205.672 257.617 205.792 256.273 205.792C254.641 205.792 253.537 205.552 252.961 205.072C252.433 204.592 252.169 203.608 252.169 202.12V200.176C250.873 201.616 249.193 202.912 247.129 204.064C245.065 205.216 242.737 205.792 240.145 205.792C237.937 205.792 235.897 205.336 234.025 204.424C232.201 203.464 230.737 202.096 229.633 200.32C228.529 198.496 227.977 196.312 227.977 193.768ZM244.753 199.816C245.761 199.816 246.913 199.528 248.209 198.952C249.505 198.328 250.633 197.584 251.593 196.72V184.912C247.273 184.912 244.033 185.656 241.873 187.144C239.761 188.584 238.705 190.456 238.705 192.76C238.705 195.064 239.233 196.816 240.289 198.016C241.393 199.216 242.881 199.816 244.753 199.816ZM272.142 171.808L267.534 170.512V165.544L279.486 164.032H279.702L281.502 165.472V168.28L281.43 170.008C283.11 168.424 285.294 167.056 287.982 165.904C290.67 164.752 293.382 164.176 296.118 164.176C299.046 164.176 301.326 164.728 302.958 165.832C304.638 166.888 305.838 168.568 306.558 170.872C307.278 173.176 307.638 176.296 307.638 180.232V200.104L312.03 200.68V205H293.454V200.68L297.342 200.104V180.232C297.342 177.736 297.174 175.792 296.838 174.4C296.502 172.96 295.878 171.928 294.966 171.304C294.102 170.632 292.854 170.296 291.222 170.296C288.486 170.296 285.558 171.472 282.438 173.824V200.032L286.758 200.68V205H267.966V200.68L272.142 200.032V171.808ZM322.086 222.928C321.222 222.928 320.286 222.856 319.278 222.712C318.318 222.568 317.622 222.4 317.19 222.208V214.504C317.526 214.696 318.198 214.888 319.206 215.08C320.214 215.272 321.126 215.368 321.942 215.368C324.342 215.368 326.31 214.576 327.846 212.992C329.43 211.408 330.894 208.744 332.238 205H328.35L314.814 170.08L311.574 169.144V164.968H331.374V169.144L326.118 170.008L332.526 189.952L335.118 198.448L337.35 189.952L343.254 170.008L338.718 169.144V164.968H354.342V169.144L350.814 170.008C348.174 178.072 345.558 185.848 342.966 193.336C340.374 200.824 338.862 205.024 338.43 205.936C336.894 209.968 335.43 213.184 334.038 215.584C332.646 217.984 330.99 219.808 329.07 221.056C327.15 222.304 324.822 222.928 322.086 222.928Z" fill="#161616"/>
<circle cx="376" cy="24" r="23" fill="#3CC340" stroke="#161616" stroke-width="2"/>
<defs>
<filter id="filter0_d_22_35" x="0" y="22" width="380" height="219" filterUnits="userSpaceOnUse" color-interpolation-filters="sRGB">
<feFlood flood-opacity="0" result="BackgroundImageFix"/>
<feColorMatrix in="SourceAlpha" type="matrix" values="0 0 0 0 0 0 0 0 0 0 0 0 0 0 0 0 0 0 127 0" result="hardAlpha"/>
<feOffset dx="6" dy="6"/>
<feComposite in2="hardAlpha" operator="out"/>
<feColorMatrix type="matrix" values="0 0 0 0 0.0862745 0 0 0 0 0.0862745 0 0 0 0 0.0862745 0 0 0 1 0"/>
<feBlend mode="normal" in2="BackgroundImageFix" result="effect1_dropShadow_22_35"/>
<feBlend mode="normal" in="SourceGraphic" in2="effect1_dropShadow_22_35" result="shape"/>
</filter>
</defs>
</svg>
