<svg width="72" height="102" viewBox="0 0 72 102" fill="none" xmlns="http://www.w3.org/2000/svg">
<path d="M30.0828 44.63C33.6728 44.63 37.5428 44.09 41.6428 43.86C43.7536 43.7152 45.8719 43.7152 47.9828 43.86C49.0796 43.9409 50.1712 44.0811 51.2528 44.28L52.0728 44.43C52.3628 44.51 52.6528 44.57 52.9428 44.66C53.5159 44.8117 54.0802 44.9953 54.6328 45.21C57.8859 46.3773 60.7543 48.4187 62.9228 51.11C63.8923 52.3862 64.6332 53.8208 65.1128 55.35C65.6102 56.9364 65.7469 58.614 65.5128 60.26C65.3965 61.0669 65.2022 61.8606 64.9328 62.63C64.6417 63.3493 64.3077 64.0506 63.9328 64.73C63.1786 65.9919 62.2569 67.1457 61.1928 68.16C59.1783 70.0449 56.8675 71.5854 54.3528 72.72C51.9548 73.8339 49.4527 74.7081 46.8828 75.33C42.3961 76.3989 37.7946 76.9094 33.1828 76.85C27.3569 76.8294 21.5773 75.8148 16.0928 73.85C14.4428 73.07 14.7628 72.85 16.3728 72.61C18.9082 72.3039 21.4684 72.2603 24.0128 72.48C25.4228 72.6 26.8328 72.67 28.2328 72.7C29.6328 72.73 31.0228 72.81 32.4128 72.8C35.1689 72.8088 37.9212 72.5948 40.6428 72.16C43.3314 71.7347 45.9757 71.0653 48.5428 70.16C51.0572 69.2837 53.4497 68.0907 55.6628 66.61C56.8988 65.7586 57.9781 64.6997 58.8528 63.48C59.6685 62.3939 60.1794 61.1096 60.3328 59.76C60.5628 57.27 58.9228 54.76 56.5628 52.97C55.2586 51.9689 53.7852 51.2102 52.2128 50.73C51.8328 50.6 51.4328 50.55 51.0428 50.43C50.6528 50.31 50.1828 50.28 49.7528 50.2C48.8643 50.0707 47.9698 49.9873 47.0728 49.95C43.2514 49.9026 39.4316 50.1298 35.6428 50.63C33.1355 50.9011 30.6145 51.0246 28.0928 51C26.7779 50.9655 25.4659 50.8587 24.1628 50.68C22.7003 50.4515 21.293 49.953 20.0128 49.21C17.8176 48.0191 16.2564 45.924 15.7428 43.48C15.3416 41.125 15.8762 38.7064 17.2328 36.74C17.8106 35.8773 18.4595 35.0645 19.1728 34.31C19.8556 33.5885 20.5766 32.9042 21.3328 32.26C22.0782 31.6268 22.8559 31.0327 23.6628 30.48C24.0628 30.2 24.4628 29.91 24.8728 29.65L26.1128 28.91C31.2564 25.8161 37.0346 23.9288 43.0128 23.39C44.3422 23.2645 45.6783 23.2245 47.0128 23.27C48.0716 23.3556 49.1237 23.5093 50.1628 23.73C50.8514 23.9169 51.521 24.168 52.1628 24.48C53.0827 24.8876 53.7647 25.6949 54.0128 26.67C54.1461 27.0693 54.2366 27.4816 54.2828 27.9C54.2828 28.54 53.7328 28.96 52.8528 29.16C52.3327 29.2635 51.803 29.3104 51.2728 29.3C50.5872 29.3538 49.8984 29.3538 49.2128 29.3C46.9296 29.2134 44.6433 29.3373 42.3828 29.67C40.1024 30.0476 37.8578 30.6163 35.6728 31.37C33.5055 32.1698 31.4194 33.1744 29.4428 34.37C27.5144 35.4821 25.7563 36.8664 24.2228 38.48C23.9428 38.75 23.7428 39.07 23.4828 39.36L23.1228 39.8L22.8728 40.16C22.589 40.5403 22.3725 40.9665 22.2328 41.42C22.1324 41.688 22.1048 41.9779 22.1528 42.26C22.1835 42.5192 22.2915 42.7631 22.4628 42.96C22.7288 43.2709 23.0511 43.5287 23.4128 43.72C23.9102 43.972 24.4429 44.1473 24.9928 44.24C25.376 44.3138 25.7634 44.3639 26.1528 44.39C26.5628 44.45 26.9928 44.47 27.4228 44.49C28.2828 44.55 29.1728 44.49 30.0728 44.49L30.0828 44.63Z" fill="#161616"/>
<path d="M32.4728 60.37C31.9728 56.31 31.3628 52.25 30.7228 48.2C30.4928 46.72 30.1028 45.27 29.8628 43.79C29.0728 38.57 28.1928 33.35 27.1128 28.17C26.6128 25.89 26.1128 23.59 25.4128 21.37C25.0128 19.93 24.5328 18.52 24.1128 17.09C23.6928 15.66 23.3128 14.24 23.0528 12.76C22.8928 11.83 23.7428 11.63 24.8528 12.07C26.303 12.665 27.4674 13.7971 28.1028 15.23C29.3028 18.13 30.3628 21.05 31.2628 24.02C32.1049 27.0184 32.7331 30.0727 33.1428 33.16C33.4174 35.0327 33.7947 36.8888 34.2728 38.72C34.7028 40.58 35.1828 42.44 35.5728 44.3C35.9628 46.3 36.3728 48.41 36.7128 50.47L37.7128 56.67L38.8028 64.32C39.0828 66.25 39.3428 68.19 39.5628 70.13C39.7828 72.07 40.0528 74 40.3028 75.93C40.5228 77.42 40.8128 78.93 41.0628 80.38C41.3623 81.861 41.5859 83.3563 41.7328 84.86C41.7328 85.53 41.8528 86.18 41.8628 86.86C41.8957 87.7845 41.7179 88.7044 41.3428 89.55C41.0626 90.0848 40.5858 90.4899 40.0128 90.68C39.7474 90.8003 39.4733 90.9006 39.1928 90.98C38.3028 91.16 37.5228 90.13 37.0028 88.44C35.3128 83.44 34.8528 78.07 34.0728 72.62C33.5128 68.62 33.0128 64.48 32.3528 60.4L32.4728 60.37Z" fill="#161616"/>
<path d="M47.4328 39.7C47.5195 43.6 47.7028 47.5033 47.9828 51.41C48.0728 52.83 48.3728 54.23 48.4728 55.65C48.6428 58.16 48.9128 60.65 49.1128 63.18C49.3128 65.71 49.5428 68.18 49.8928 70.7C50.2009 72.91 50.6214 75.1028 51.1528 77.27C51.4628 78.65 51.9028 80 52.2328 81.38C52.5537 82.7683 52.7941 84.174 52.9528 85.59C53.0328 86.48 52.2328 86.59 51.1828 86.15C49.809 85.5152 48.7164 84.3977 48.1128 83.01C46.2599 77.3234 45.0753 71.4405 44.5828 65.48C44.4028 63.7 44.2228 61.9 43.9428 60.09C43.6628 58.28 43.4128 56.48 43.2128 54.68C42.8028 50.68 42.5328 46.68 42.3128 42.68C42.2228 41.45 42.2028 40.21 42.1528 38.98C42.1028 37.75 42.0128 36.54 42.0128 35.31C41.9428 31.58 42.0128 27.83 42.0128 24.11C42.0128 22.67 42.0128 21.24 42.0128 19.8C42.0128 18.36 42.0128 16.94 42.1128 15.48C42.1128 14.85 42.1628 14.22 42.2328 13.58C42.5928 11.19 43.0828 10.46 44.1328 10.18C44.3718 10.1035 44.6157 10.0434 44.8628 10C45.6428 10 46.1128 11 46.1428 12.65C46.2328 15.11 46.3928 17.65 46.5728 20.19C46.6228 21.46 46.7828 22.76 46.8528 24.06V26.06L46.9528 28.06C47.0728 31.94 47.3928 35.86 47.5328 39.78L47.4328 39.7Z" fill="#161616"/>
</svg>
