<svg width="433" height="222" viewBox="0 0 433 222" fill="none" xmlns="http://www.w3.org/2000/svg">
<path fill-rule="evenodd" clip-rule="evenodd" d="M157.15 222H159.687C158.711 220.538 157.374 219.275 155.585 218.321C155.097 218.061 154.492 218.246 154.232 218.733C153.972 219.22 154.156 219.826 154.644 220.086C155.643 220.619 156.47 221.264 157.15 222Z" fill="#161616"/>
<path fill-rule="evenodd" clip-rule="evenodd" d="M256.316 222C257.952 220.938 259.474 219.418 260.503 217.288C261.982 214.226 263.426 212.112 264.655 210.706C265.852 209.335 266.918 208.553 267.668 208.305C268.192 208.132 268.758 208.417 268.931 208.941C269.104 209.466 268.819 210.031 268.295 210.204C268.058 210.283 267.282 210.738 266.161 212.021C265.071 213.269 263.72 215.226 262.304 218.157C261.558 219.702 260.598 220.968 259.527 222H256.316Z" fill="#161616"/>
<path d="M168.485 147.515C157.612 161.474 158.455 181.813 161.029 193.71C162.605 199.056 171.39 225.197 152.602 212.839C143.971 207.162 107.426 129.871 181.856 114.607C182.409 114.494 182.797 113.942 182.69 113.388C180.173 100.262 186.414 87.1684 182.902 68.772" stroke="#161616" stroke-width="2" stroke-linecap="round"/>
<path d="M166.778 146.646C170.438 147.332 193.194 155.193 201.77 145.105" stroke="#161616" stroke-width="2" stroke-linecap="round"/>
<path d="M231.96 143.083C244.653 150.248 257.175 142.164 268.324 139.956" stroke="#161616" stroke-width="2" stroke-linecap="round"/>
<path d="M265.58 140.644C273.711 148.316 280.797 172.942 272.871 200.634C271.334 206.005 271.781 219.551 281.982 213.517C294.818 205.925 333.623 115.157 248.201 114.235C247.554 114.228 247.029 113.623 247.172 112.992C250.155 99.8312 250.683 84.8378 250.572 69.1579" stroke="#161616" stroke-width="2" stroke-linecap="round"/>
<path d="M242.82 188.659C240.312 179.622 239.054 178.821 235.406 174.818C235.406 178.774 234.726 185.415 234.726 188.181C222.772 188.181 212.685 193.073 209.132 195.52C209.261 187.224 201.502 181.799 201.502 181.799C201.502 181.799 202.614 178.449 203.251 170.95C203.762 164.951 202.296 166.11 201.502 167.44C199.214 174.843 195.464 172.865 193.872 170.95C174.366 202.728 204.363 208.868 210.087 208.283C214.411 211.985 220.441 214.885 224.679 215.311C239.97 216.845 246.888 203.311 242.82 188.659Z" fill="#161616"/>
<path d="M201.427 161.589C203.505 149.038 217.442 140.013 227.501 150.18C237.559 160.347 235.545 178.958 234.471 187.642" stroke="#161616" stroke-width="2" stroke-linecap="round"/>
<path d="M226.714 141.682C227.729 144.724 226.804 146.771 225.902 147.161C220.487 142.013 212.275 143.924 209.23 147.044C208.147 146.014 208.779 142.969 209.23 142.033C215.095 135.294 223.443 139.069 226.714 141.682Z" fill="#161616"/>
<path d="M205.201 124.176L205.681 124.921C208.194 128.821 213.129 130.378 217.425 128.626V128.626C221.286 127.052 225.722 128.139 228.419 131.32L231.96 135.497" stroke="#161616" stroke-width="2" stroke-linecap="round"/>
<path d="M193.604 171.861C192.396 168.874 193.53 162.255 201.427 162.255" stroke="#161616" stroke-width="2" stroke-linecap="round"/>
<path d="M197.367 169.803C197.187 169.307 197.331 168.133 199.369 167.401" stroke="#161616" stroke-width="2" stroke-linecap="round"/>
<path d="M234.361 163.628C237.119 164.724 239.066 168.787 238.316 175.292" stroke="#161616" stroke-width="2" stroke-linecap="round"/>
<path d="M226.934 171.721C227.745 172.224 227.968 173.334 227.431 174.2C226.894 175.066 225.801 175.359 224.989 174.856C224.177 174.353 223.955 173.243 224.492 172.377C225.029 171.511 226.122 171.217 226.934 171.721Z" fill="#161616"/>
<path d="M212.834 170.393C213.809 170.863 214.285 171.895 213.898 172.699C213.511 173.502 212.407 173.771 211.432 173.301C210.456 172.831 209.98 171.799 210.367 170.996C210.754 170.193 211.859 169.923 212.834 170.393Z" fill="#161616"/>
<path d="M208.289 175.978C208.665 176.848 210.292 178.456 213.778 177.935" stroke="#161616" stroke-width="2" stroke-linecap="round"/>
<path d="M224.755 178.036C225.535 178.295 227.656 178.658 229.901 178.036" stroke="#161616" stroke-width="2" stroke-linecap="round"/>
<path d="M218.745 172.204C218.508 170.128 218.343 165.918 219.61 165.686" stroke="#161616" stroke-width="2" stroke-linecap="round"/>
<path d="M219.953 155.543C217.524 154.838 217.677 156.779 215.836 158.482" stroke="#161616" stroke-width="2" stroke-linecap="round"/>
<path d="M323.423 1.55575L315.838 31.1598C310.17 53.2798 290.237 68.7498 267.402 68.7498H165.885C142.905 68.7498 122.884 53.0864 117.354 30.7819L109.971 1.00015" stroke="#161616" stroke-width="2" stroke-linecap="round"/>
<path d="M118.133 38.5481H49.897C29.5179 38.5481 11.1781 26.1799 3.54086 7.28601L1 1.00012" stroke="#161616" stroke-width="2" stroke-linecap="round"/>
<path d="M319.75 21.8148H402.289C415.335 21.8148 427.08 13.9058 431.986 1.81638V1.81638" stroke="#161616" stroke-width="2" stroke-linecap="round"/>
</svg>
